# xmcd
#
# Track frame offsets:
#	150
#	20025
#	38802
#	53641
#	64958
#	79090
#	96577
#	108124
#	122054
#	140731
#	159074
#	174059
#
# Disc length: 2519 seconds
#
# Revision: 1
# Processed by: cddbd v1.5.2PL0 Copyright (c) Steve Scherf et al.
# Submitted via: audiograbber 1.83.01
#
DISCID=9709d50c
DTITLE=John Lee Hooker - All Odds Against Me
DYEAR=1900
DGENRE=Blues
TTITLE0=Dear John
TTITLE1=Extramarital Affair
TTITLE2=One Eye Open
TTITLE3=I Miss You So
TTITLE4=I've Got Your Back
TTITLE5=Pay Day
TTITLE6=Stressed Out
TTITLE7=There's a Struggle
TTITLE8=Old School
TTITLE9=Bluses Ain't Nothing But a Pimp
TTITLE10=The People Want a Change
TTITLE11=That Be the Blues
EXTD=
EXTT0=
EXTT1=
EXTT2=
EXTT3=
EXTT4=
EXTT5=
EXTT6=
EXTT7=
EXTT8=
EXTT9=
EXTT10=
EXTT11=
PLAYORDER=
